# xmcd CD database file
#
# Track frame offsets:
#	182
#	28632
#	48922
#	70102
#	101735
#	126045
#	146855
#	184167
#	209867
#	225335
#
# Disc length: 3680 seconds
#
# Revision: 1
# Processed by: cddbd v1.5.2PL0 Copyright (c) Steve Scherf et al.
# Submitted via: CDex 1.51
#
DISCID=910e5e0a
DTITLE=Roberto Fats Fernandez - La Música and La Vida
DYEAR=1993
DGENRE=Jazz
TTITLE0=Algún Día Te Arrepentirás
TTITLE1=Encendido
TTITLE2=La Música and La Vida
TTITLE3=Nostalgias De Dizzy
TTITLE4=Sueños De Mi Ciudad
TTITLE5=Nace Un Quinteto
TTITLE6=Mambo Tango
TTITLE7=Prepárense
TTITLE8=My Romance
TTITLE9=Now's The Time
EXTD=YEAR: 1993
EXTT0=
EXTT1=
EXTT2=
EXTT3=
EXTT4=
EXTT5=
EXTT6=
EXTT7=
EXTT8=
EXTT9=
PLAYORDER=
